<svg xmlns="http://www.w3.org/2000/svg" width="20" height="20" viewBox="0 0 20 20" fill="none">
<g clip-path="url(#clip0_4744_38056)">
<path d="M14.9987 0.833008H4.9987C3.89404 0.834331 2.835 1.27374 2.05388 2.05486C1.27277 2.83597 0.833354 3.89501 0.832031 4.99967V11.6663C0.833243 12.6265 1.16544 13.5569 1.77263 14.3007C2.37982 15.0445 3.22488 15.5563 4.16536 15.7497V18.333C4.16534 18.4839 4.20628 18.6319 4.2838 18.7613C4.36133 18.8908 4.47254 18.9967 4.60556 19.0679C4.73859 19.1391 4.88844 19.1728 5.03913 19.1655C5.18982 19.1582 5.3357 19.1101 5.4612 19.0263L10.2487 15.833H14.9987C16.1034 15.8317 17.1624 15.3923 17.9435 14.6112C18.7246 13.83 19.164 12.771 19.1654 11.6663V4.99967C19.164 3.89501 18.7246 2.83597 17.9435 2.05486C17.1624 1.27374 16.1034 0.834331 14.9987 0.833008ZM13.332 10.833H6.66536C6.44435 10.833 6.23239 10.7452 6.07611 10.5889C5.91983 10.4326 5.83203 10.2207 5.83203 9.99967C5.83203 9.77866 5.91983 9.5667 6.07611 9.41042C6.23239 9.25414 6.44435 9.16634 6.66536 9.16634H13.332C13.553 9.16634 13.765 9.25414 13.9213 9.41042C14.0776 9.5667 14.1654 9.77866 14.1654 9.99967C14.1654 10.2207 14.0776 10.4326 13.9213 10.5889C13.765 10.7452 13.553 10.833 13.332 10.833ZM14.9987 7.49967H4.9987C4.77768 7.49967 4.56572 7.41188 4.40944 7.2556C4.25316 7.09932 4.16536 6.88735 4.16536 6.66634C4.16536 6.44533 4.25316 6.23337 4.40944 6.07709C4.56572 5.92081 4.77768 5.83301 4.9987 5.83301H14.9987C15.2197 5.83301 15.4317 5.92081 15.588 6.07709C15.7442 6.23337 15.832 6.44533 15.832 6.66634C15.832 6.88735 15.7442 7.09932 15.588 7.2556C15.4317 7.41188 15.2197 7.49967 14.9987 7.49967Z" fill="white"/>
</g>
<defs>
<clipPath id="clip0_4744_38056">
<rect width="20" height="20" fill="white"/>
</clipPath>
</defs>
</svg>