<svg width="24" height="24" viewBox="0 0 24 24" fill="none" xmlns="http://www.w3.org/2000/svg">
<g clip-path="url(#clip0_3370_5553)">
<mask id="mask0_3370_5553" style="mask-type:luminance" maskUnits="userSpaceOnUse" x="0" y="0" width="24" height="24">
<path d="M0 0H24V24H0V0Z" fill="white"/>
</mask>
<g mask="url(#mask0_3370_5553)">
<path fill-rule="evenodd" clip-rule="evenodd" d="M11.9983 0.08008C13.7922 0.0790609 15.5632 0.482939 17.1792 1.26161C18.7955 2.04032 20.2151 3.17378 21.3323 4.57749C22.4493 5.9812 23.2353 7.61896 23.6313 9.36868C24.0275 11.1184 24.0233 12.935 23.6198 14.683C23.2161 16.4309 22.4231 18.0653 21.2997 19.4641C20.1765 20.863 18.7519 21.9901 17.1324 22.7619C15.5128 23.5335 13.74 23.9297 11.946 23.9207C10.2473 23.9123 8.57117 23.541 7.02948 22.8329L1.0878 23.9072C0.784223 23.9621 0.474568 23.8496 0.276991 23.6127C0.0794156 23.3758 0.0244008 23.0509 0.13294 22.7622L1.83733 18.2276C0.791023 16.5196 0.190643 14.5733 0.0950892 12.5678C-0.00753289 10.414 0.475962 8.27272 1.49408 6.37199C2.5122 4.47126 4.0268 2.88227 5.87658 1.77428C7.72628 0.666313 9.84212 0.0807985 11.9983 0.08008ZM6.47547 11.9978L6.47626 12.0005L6.47547 12.0031L6.47451 12.0048L6.47283 12.0058L6.47017 12.0066L6.46753 12.0058L6.46585 12.0048L6.46489 12.0031L6.4641 12.0005L6.46489 11.9978L6.46585 11.9962L6.46753 11.9952L6.47017 11.9944L6.47283 11.9952L6.47451 11.9962L6.47547 11.9978ZM6.47017 10.2923C5.52678 10.2923 4.76202 11.0571 4.76202 12.0005C4.76202 12.9439 5.52678 13.7086 6.47017 13.7086C7.41358 13.7086 8.17834 12.9439 8.17834 12.0005C8.17834 11.0571 7.41358 10.2923 6.47017 10.2923ZM12.0079 12.0005L12.0071 11.9978L12.0061 11.9962L12.0045 11.9952L12.0018 11.9944L11.9992 11.9952L11.9975 11.9962L11.9965 11.9978L11.9957 12.0005L11.9965 12.0031L11.9975 12.0048L11.9992 12.0058L12.0018 12.0066L12.0045 12.0058L12.0061 12.0048L12.0071 12.0031L12.0079 12.0005ZM10.2936 12.0005C10.2936 11.0571 11.0584 10.2923 12.0018 10.2923C12.9452 10.2923 13.71 11.0571 13.71 12.0005C13.71 12.9439 12.9452 13.7086 12.0018 13.7086C11.0584 13.7086 10.2936 12.9439 10.2936 12.0005ZM17.5387 11.9978L17.5396 12.0005L17.5387 12.0031L17.5377 12.0048L17.5361 12.0058L17.5334 12.0066L17.5308 12.0058L17.5291 12.0048L17.5281 12.0031L17.5274 12.0005L17.5281 11.9978L17.5291 11.9962L17.5308 11.9952L17.5334 11.9944L17.5361 11.9952L17.5377 11.9962L17.5387 11.9978ZM17.5334 10.2923C16.59 10.2923 15.8253 11.0571 15.8253 12.0005C15.8253 12.9439 16.59 13.7086 17.5334 13.7086C18.4768 13.7086 19.2415 12.9439 19.2415 12.0005C19.2415 11.0571 18.4768 10.2923 17.5334 10.2923Z" fill="white"/>
</g>
</g>
<defs>
<clipPath id="clip0_3370_5553">
<rect width="24" height="24" fill="white"/>
</clipPath>
</defs>
</svg>
