<svg width="24" height="24" viewBox="0 0 24 24" fill="none" xmlns="http://www.w3.org/2000/svg">
<g id="contact">
<path id="Vector" fill-rule="evenodd" clip-rule="evenodd" d="M8.8717 5.01934H22.1952L14.2817 10.4443L8.89889 6.75418C9.10383 6.20542 9.10556 5.58512 8.8717 5.01934ZM5.38716 8.16803L7.32919 6.98556C7.90552 6.63465 8.09681 5.88596 7.75941 5.30157L6.00614 2.26482C5.82628 1.95324 5.55403 1.75281 5.20312 1.67359C4.85217 1.59432 4.5203 1.65831 4.22395 1.86235L1.02652 4.06379C-0.495469 9.42648 6.34402 21.0365 11.5895 22.3594L15.0947 20.6911C15.4196 20.5365 15.641 20.281 15.7478 19.9374C15.8546 19.5939 15.8172 19.2579 15.6373 18.9464L13.884 15.9096C13.5466 15.3252 12.8026 15.1165 12.2105 15.4402L10.2155 16.5308C8.2425 14.7761 5.92031 10.754 5.38716 8.16803ZM23.1629 5.71703L14.5981 11.5885C14.3977 11.7253 14.1403 11.7146 13.954 11.5808L8.26809 7.68287C8.16037 7.77995 8.04239 7.86845 7.91423 7.94649L6.68592 8.69434C7.33125 10.777 8.92805 13.5427 10.409 15.1429L11.6708 14.4531C12.7983 13.8368 14.2158 14.2344 14.8582 15.3471L15.9455 17.2304H22.2787C22.7788 17.2304 23.1879 16.8212 23.1879 16.3212V5.92853C23.1879 5.85578 23.1792 5.78495 23.1629 5.71703Z" fill="#D1D1D1"/>
</g>
</svg>
