<svg width="20" height="20" viewBox="0 0 20 20" fill="none" xmlns="http://www.w3.org/2000/svg">
<g id="close" clip-path="url(#clip0_2468_10400)">
<path id="Vector" d="M15.2501 4.75794C14.9251 4.43294 14.4001 4.43294 14.0751 4.75794L10.0001 8.82461L5.9251 4.74961C5.6001 4.42461 5.0751 4.42461 4.7501 4.74961C4.4251 5.07461 4.4251 5.59961 4.7501 5.92461L8.8251 9.99961L4.7501 14.0746C4.4251 14.3996 4.4251 14.9246 4.7501 15.2496C5.0751 15.5746 5.6001 15.5746 5.9251 15.2496L10.0001 11.1746L14.0751 15.2496C14.4001 15.5746 14.9251 15.5746 15.2501 15.2496C15.5751 14.9246 15.5751 14.3996 15.2501 14.0746L11.1751 9.99961L15.2501 5.92461C15.5668 5.60794 15.5668 5.07461 15.2501 4.75794Z" fill="white"/>
</g>
<defs>
<clipPath id="clip0_2468_10400">
<rect width="20" height="20" fill="white"/>
</clipPath>
</defs>
</svg>
