<svg width="24" height="24" viewBox="0 0 24 24" fill="none" xmlns="http://www.w3.org/2000/svg">
<g clip-path="url(#clip0_3370_5544)">
<path d="M12 0C5.38318 0 0 5.38318 0 12C0 18.6168 5.38318 24 12 24C18.6164 24 23.9992 18.6168 23.9992 12C23.9992 5.38318 18.6164 0 12 0ZM17.9313 6.83591L14.1309 13.8977C14.0788 13.9945 13.9995 14.0742 13.9023 14.1264L6.84094 17.9263C6.75694 17.9714 6.66559 17.9932 6.57463 17.9932C6.42889 17.9932 6.28489 17.9369 6.1767 17.8285C6.00097 17.653 5.96129 17.3828 6.07896 17.1641L9.87858 10.1029C9.93084 10.0059 10.0104 9.9262 10.1074 9.87413L17.1695 6.07413C17.3882 5.95626 17.658 5.99613 17.8339 6.17167C18.0093 6.34741 18.0494 6.61721 17.9313 6.83591Z" fill="white"/>
<path d="M12.0136 10.6924C11.2898 10.6924 10.7031 11.2784 10.7031 12.0023C10.7031 12.7259 11.2899 13.3129 12.0136 13.3129C12.7367 13.3129 13.3235 12.7259 13.3235 12.0023C13.3235 11.2784 12.7367 10.6924 12.0136 10.6924Z" fill="white"/>
</g>
<defs>
<clipPath id="clip0_3370_5544">
<rect width="24" height="24" fill="white"/>
</clipPath>
</defs>
</svg>
