<svg width="20" height="20" viewBox="0 0 20 20" fill="none" xmlns="http://www.w3.org/2000/svg">
<path d="M9.99994 13.0799C11.7004 13.0799 13.079 11.7014 13.079 10.0009C13.079 8.30041 11.7004 6.92188 9.99994 6.92188C8.29943 6.92188 6.9209 8.30041 6.9209 10.0009C6.9209 11.7014 8.29943 13.0799 9.99994 13.0799Z" fill="white"/>
<path d="M19.6932 9.14824C17.3265 6.2882 13.7438 3.53516 10 3.53516C6.25555 3.53516 2.67205 6.29012 0.306845 9.14824C-0.102282 9.64243 -0.102282 10.3598 0.306845 10.854C0.901484 11.5726 2.14811 12.9597 3.8131 14.1717C8.00632 17.2242 11.9845 17.231 16.187 14.1717C17.852 12.9597 19.0986 11.5726 19.6932 10.854C20.1012 10.3608 20.1033 9.64404 19.6932 9.14824ZM10 5.69048C12.3771 5.69048 14.3107 7.62412 14.3107 10.0011C14.3107 12.3781 12.3771 14.3118 10 14.3118C7.62302 14.3118 5.68939 12.3781 5.68939 10.0011C5.68939 7.62412 7.62302 5.69048 10 5.69048Z" fill="white"/>
</svg>
