<svg width="24" height="24" viewBox="0 0 24 24" fill="none" xmlns="http://www.w3.org/2000/svg">
<path d="M5.37963 9.2C6.09892 8.48614 7.07124 8.08554 8.08463 8.08554C9.09803 8.08554 10.0703 8.48614 10.7896 9.2L13.3696 11.79C13.4626 11.8837 13.5732 11.9581 13.6951 12.0089C13.8169 12.0597 13.9476 12.0858 14.0796 12.0858C14.2116 12.0858 14.3424 12.0597 14.4642 12.0089C14.5861 11.9581 14.6967 11.8837 14.7896 11.79L15.3696 11.2C16.1015 10.5065 17.0714 10.12 18.0796 10.12C19.0879 10.12 20.0578 10.5065 20.7896 11.2L22.9996 13.4V6C22.9996 5.34339 22.8703 4.69321 22.619 4.08658C22.3678 3.47995 21.9995 2.92876 21.5352 2.46447C21.0709 2.00017 20.5197 1.63188 19.9131 1.3806C19.3064 1.12933 18.6562 1 17.9996 1H5.99963C5.34302 1 4.69284 1.12933 4.08622 1.3806C3.47959 1.63188 2.92839 2.00017 2.4641 2.46447C1.52642 3.40215 0.999634 4.67392 0.999634 6V13.45L5.37963 9.2Z" fill="white"/>
<path d="M19.3796 12.6292C19.2103 12.4578 19.0087 12.3217 18.7864 12.2288C18.5641 12.1359 18.3256 12.088 18.0846 12.088C17.8437 12.088 17.6052 12.1359 17.3829 12.2288C17.1606 12.3217 16.9589 12.4578 16.7896 12.6292L16.1996 13.2092C15.6297 13.7568 14.87 14.0626 14.0796 14.0626C13.2893 14.0626 12.5296 13.7568 11.9596 13.2092L9.36963 10.6292C9.2012 10.4581 9.0004 10.3222 8.77893 10.2294C8.55746 10.1366 8.31975 10.0889 8.07963 10.0889C7.83952 10.0889 7.6018 10.1366 7.38033 10.2294C7.15886 10.3222 6.95807 10.4581 6.78963 10.6292L1.14963 16.0792C1.10625 16.1215 1.05539 16.1555 0.999634 16.1792V17.9992C0.999634 19.3253 1.52642 20.5971 2.4641 21.5348C3.40178 22.4724 4.67355 22.9992 5.99963 22.9992H17.9996C18.6562 22.9992 19.3064 22.8699 19.9131 22.6186C20.5197 22.3673 21.0709 21.9991 21.5352 21.5348C21.9995 21.0705 22.3678 20.5193 22.619 19.9126C22.8703 19.306 22.9996 18.6558 22.9996 17.9992V16.2092L19.3796 12.6292Z" fill="white"/>
</svg>
