<svg width="20" height="20" viewBox="0 0 20 20" fill="none" xmlns="http://www.w3.org/2000/svg">
<path d="M9.9998 0.400391C7.5198 0.400391 5.5198 2.40039 5.5198 4.88039V6.48039H5.1998C3.9198 6.48039 2.7998 7.52039 2.7998 8.88039V12.4804C2.7998 16.4804 5.9998 19.6804 9.9998 19.6804C13.9998 19.6804 17.1998 16.4804 17.1998 12.4804V8.80039C17.1998 7.52039 16.1598 6.40039 14.7998 6.40039H14.3998V4.80039C14.4798 2.40039 12.4798 0.400391 9.9998 0.400391ZM10.7998 13.8404V15.3604C10.7998 15.8404 10.3998 16.1604 9.9998 16.1604C9.5198 16.1604 9.1998 15.8404 9.1998 15.3604V13.8404C8.3998 13.5204 7.8398 12.7204 7.8398 11.8404C7.8398 10.6404 8.7998 9.68039 9.9998 9.68039C11.1998 9.68039 12.1598 10.6404 12.1598 11.8404C12.1598 12.7204 11.5998 13.5204 10.7998 13.8404ZM12.8798 6.40039H7.1198V4.80039C7.1198 3.20039 8.3998 1.92039 9.9998 1.92039C11.5998 1.92039 12.8798 3.20039 12.8798 4.80039V6.40039Z" fill="#8D8D8D"/>
</svg>
