<svg width="20" height="20" viewBox="0 0 20 20" fill="none" xmlns="http://www.w3.org/2000/svg">
<g clip-path="url(#clip0_3128_4973)">
<path d="M10.0155 0C15.2319 0 19.51 3.99453 19.9701 9.09085H11.8338V6.36358C11.8338 5.99637 11.6119 5.66462 11.2728 5.52363C10.9329 5.3828 10.5419 5.46087 10.282 5.72088L6.64554 9.35736C6.29015 9.71275 6.29015 10.2872 6.64554 10.6428L10.282 14.2791C10.5419 14.5391 10.9329 14.6173 11.2728 14.4763C11.6119 14.3355 11.8338 14.0036 11.8338 13.6364V10.9091H19.9701C19.51 16.0054 15.2319 19.9999 10.0155 19.9999C4.49289 19.9999 0.015625 15.5227 0.015625 10.0001C0.015625 4.47726 4.49289 0 10.0155 0Z" fill="white"/>
</g>
<defs>
<clipPath id="clip0_3128_4973">
<rect width="20" height="20" fill="white"/>
</clipPath>
</defs>
</svg>
