<svg width="20" height="20" viewBox="0 0 20 20" fill="none" xmlns="http://www.w3.org/2000/svg">
<g id="create" clip-path="url(#clip0_6648_34920)">
<path id="Vector" d="M17.5391 2.10938H17.8906V2.46094C17.8906 2.78453 18.153 3.04688 18.4766 3.04688C18.8002 3.04688 19.0625 2.78453 19.0625 2.46094V2.10938H19.4141C19.7377 2.10938 20 1.84703 20 1.52344C20 1.19984 19.7377 0.9375 19.4141 0.9375H19.0625V0.585938C19.0625 0.262344 18.8002 0 18.4766 0C18.153 0 17.8906 0.262344 17.8906 0.585938V0.9375H17.5391C17.2155 0.9375 16.9531 1.19984 16.9531 1.52344C16.9531 1.84703 17.2155 2.10938 17.5391 2.10938Z" fill="white"/>
<path id="Vector_2" d="M11.25 2.77344H11.6016V3.125C11.6016 3.44859 11.8639 3.71094 12.1875 3.71094C12.5111 3.71094 12.7734 3.44859 12.7734 3.125V2.77344H13.125C13.4486 2.77344 13.7109 2.51109 13.7109 2.1875C13.7109 1.86391 13.4486 1.60156 13.125 1.60156H12.7734V1.25C12.7734 0.926406 12.5111 0.664062 12.1875 0.664062C11.8639 0.664062 11.6016 0.926406 11.6016 1.25V1.60156H11.25C10.9264 1.60156 10.6641 1.86391 10.6641 2.1875C10.6641 2.51109 10.9264 2.77344 11.25 2.77344Z" fill="white"/>
<path id="Vector_3" d="M17.2266 8.75C17.2266 9.07359 17.4889 9.33594 17.8125 9.33594C18.1361 9.33594 18.3984 9.07359 18.3984 8.75V8.39844H18.75C19.0736 8.39844 19.3359 8.13609 19.3359 7.8125C19.3359 7.48891 19.0736 7.22656 18.75 7.22656H18.3984V6.875C18.3984 6.55141 18.1361 6.28906 17.8125 6.28906C17.4889 6.28906 17.2266 6.55141 17.2266 6.875V7.22656H16.875C16.5514 7.22656 16.2891 7.48891 16.2891 7.8125C16.2891 8.13609 16.5514 8.39844 16.875 8.39844H17.2266V8.75Z" fill="white"/>
<path id="Vector_4" d="M19.4141 12.8516H19.0625V12.5C19.0625 12.1764 18.8002 11.9141 18.4766 11.9141C18.153 11.9141 17.8906 12.1764 17.8906 12.5V12.8516H17.5391C17.2155 12.8516 16.9531 13.1139 16.9531 13.4375C16.9531 13.7611 17.2155 14.0234 17.5391 14.0234H17.8906V14.375C17.8906 14.6986 18.153 14.9609 18.4766 14.9609C18.8002 14.9609 19.0625 14.6986 19.0625 14.375V14.0234H19.4141C19.7377 14.0234 20 13.7611 20 13.4375C20 13.1139 19.7377 12.8516 19.4141 12.8516Z" fill="white"/>
<path id="Vector_5" d="M5.625 2.10938H5.97656V2.46094C5.97656 2.78453 6.23891 3.04688 6.5625 3.04688C6.88609 3.04688 7.14844 2.78453 7.14844 2.46094V2.10938H7.5C7.82359 2.10938 8.08594 1.84703 8.08594 1.52344C8.08594 1.19984 7.82359 0.9375 7.5 0.9375H7.14844V0.585938C7.14844 0.262344 6.88609 0 6.5625 0C6.23891 0 5.97656 0.262344 5.97656 0.585938V0.9375H5.625C5.30141 0.9375 5.03906 1.19984 5.03906 1.52344C5.03906 1.84703 5.30141 2.10938 5.625 2.10938Z" fill="white"/>
<path id="Vector_6" d="M3.45939 4.5713L5.64689 5.8213C5.92658 5.98119 6.28506 5.88552 6.44635 5.6033C6.60689 5.32232 6.50928 4.96443 6.22834 4.80384L4.04084 3.55384C3.75994 3.39334 3.40197 3.49091 3.24139 3.77185C3.0808 4.05287 3.17842 4.41076 3.45939 4.5713Z" fill="white"/>
<path id="Vector_7" d="M2.18682 8.08612C2.23901 8.08612 2.0162 8.11202 4.76022 7.76901C5.08136 7.72889 5.30913 7.43604 5.26893 7.11495C5.22882 6.79382 4.93589 6.56565 4.61487 6.60624L2.11487 6.91874C1.79374 6.95886 1.56597 7.25171 1.60616 7.5728C1.64319 7.86921 1.89557 8.08612 2.18682 8.08612Z" fill="white"/>
<path id="Vector_8" d="M15.1963 13.7719C15.0357 13.4909 14.6778 13.3933 14.3969 13.5539C14.1159 13.7145 14.0183 14.0723 14.1789 14.3534L15.4289 16.5409C15.537 16.7301 15.7347 16.8362 15.9381 16.8362C16.3803 16.8362 16.6718 16.3541 16.4463 15.9595L15.1963 13.7719Z" fill="white"/>
<path id="Vector_9" d="M12.8852 14.7312C12.5641 14.6909 12.2713 14.9188 12.2312 15.2399L11.9187 17.7399C11.875 18.0885 12.1466 18.3986 12.5008 18.3986C12.792 18.3986 13.0444 18.1816 13.0814 17.8852L13.3939 15.3852C13.4341 15.0642 13.2064 14.7713 12.8852 14.7312Z" fill="white"/>
<path id="Vector_10" d="M8.42355 14.1567L9.2657 13.2058C9.24453 13.1136 9.27164 13.2725 8.92387 11.0766C6.72875 10.7289 6.88504 10.7556 6.79453 10.7349L5.84375 11.5769L8.42355 14.1567Z" fill="white"/>
<path id="Vector_11" d="M10.399 12.9043C10.4804 13.4179 11.1432 13.5778 11.4501 13.1593L13.1091 10.8986H15.6249C16.1005 10.8986 16.3783 10.3595 16.1017 9.9721L14.7024 8.01312L15.4796 5.24288C15.6024 4.80519 15.199 4.39651 14.7572 4.52046L11.9869 5.29769L10.0279 3.89839C9.64091 3.62202 9.10142 3.89909 9.10142 4.37519V6.89089L6.84071 8.54987C6.42169 8.8573 6.58259 9.51968 7.09567 9.60097C7.79392 9.71155 9.24946 9.9421 9.94739 10.0526L10.399 12.9043Z" fill="white"/>
<path id="Vector_12" d="M4.96431 12.3555L0.764893 16.0748C0.300127 16.4815 0.0217677 17.0688 0.00125988 17.6861C-0.0407714 18.9499 0.974229 20 2.24091 20C2.88446 20 3.50239 19.7185 3.92306 19.2377L7.64458 15.0357L4.96431 12.3555Z" fill="white"/>
</g>
<defs>
<clipPath id="clip0_6648_34920">
<rect width="20" height="20" fill="white"/>
</clipPath>
</defs>
</svg>
