<svg width="24" height="24" viewBox="0 0 24 24" fill="none" xmlns="http://www.w3.org/2000/svg">
<g opacity="0.6" clip-path="url(#clip0_3616_4966)">
<path d="M23.7818 8.64499L18.2678 3.13099C18.1283 2.99149 17.9401 2.91274 17.7436 2.91124L6.35933 2.82424C6.15833 2.82274 5.96558 2.90149 5.82308 3.04399L0.221328 8.64574C-0.0711719 8.93899 -0.0711719 9.41299 0.221328 9.70624L11.4713 20.9562C11.7646 21.2495 12.2393 21.2495 12.5318 20.9562L23.7818 9.70624C24.0751 9.41299 24.0751 8.93824 23.7818 8.64499ZM19.4318 9.71149L14.0678 15.1287C13.7761 15.4235 13.3013 15.4257 13.0066 15.134C12.7118 14.8422 12.7096 14.3675 13.0013 14.0727L17.8576 9.16999L16.2166 7.42099C15.9293 7.12324 15.9383 6.64774 16.2368 6.36049C16.3823 6.21949 16.5788 6.14524 16.7806 6.15124C16.9831 6.15724 17.1743 6.24499 17.3108 6.39424L19.4468 8.67199C19.7213 8.96599 19.7153 9.42499 19.4318 9.71149Z" fill="white"/>
</g>
<defs>
<clipPath id="clip0_3616_4966">
<rect width="24" height="24" fill="white"/>
</clipPath>
</defs>
</svg>
