<svg width="16" height="16" viewBox="0 0 16 16" fill="none" xmlns="http://www.w3.org/2000/svg">
    <g id="premium 1" clip-path="url(#clip0_12280_7922)">
        <path id="Vector" d="M15.8533 5.76333L12.1773 2.08733C12.0843 1.99433 11.9588 1.94183 11.8278 1.94083L4.23825 1.88283C4.10425 1.88183 3.97575 1.93433 3.88075 2.02933L0.14625 5.76383C-0.04875 5.95933 -0.04875 6.27533 0.14625 6.47083L7.64625 13.9708C7.84175 14.1663 8.15825 14.1663 8.35325 13.9708L15.8533 6.47083C16.0488 6.27533 16.0488 5.95883 15.8533 5.76333ZM12.9533 6.47433L9.37725 10.0858C9.18275 10.2823 8.86625 10.2838 8.66975 10.0893C8.47325 9.89483 8.47175 9.57833 8.66625 9.38183L11.9038 6.11333L10.8098 4.94733C10.6183 4.74883 10.6243 4.43183 10.8233 4.24033C10.9203 4.14633 11.0513 4.09683 11.1858 4.10083C11.3208 4.10483 11.4483 4.16333 11.5393 4.26283L12.9633 5.78133C13.1463 5.97733 13.1423 6.28333 12.9533 6.47433Z" fill="white"/>
    </g>
    <defs>
        <clipPath id="clip0_12280_7922">
            <rect width="16" height="16" fill="white"/>
        </clipPath>
    </defs>
</svg>
