<svg width="11" height="13" viewBox="0 0 11 13" fill="none" xmlns="http://www.w3.org/2000/svg">
<path fill-rule="evenodd" clip-rule="evenodd" d="M6.95279 0.554203C7.03413 0.600771 7.09797 0.674016 7.13412 0.762255C7.17027 0.850494 7.17664 0.948642 7.15223 1.04104L6.04556 5.21405H10.0834C10.1646 5.21405 10.244 5.23846 10.3119 5.28427C10.3798 5.33008 10.4332 5.3953 10.4655 5.47191C10.4979 5.54851 10.5077 5.63317 10.4939 5.71547C10.4801 5.79778 10.4432 5.87414 10.3878 5.93516L4.55444 12.3635C4.4909 12.4337 4.40632 12.4799 4.31423 12.4948C4.22214 12.5097 4.12785 12.4924 4.04645 12.4457C3.96504 12.3989 3.90123 12.3255 3.86521 12.237C3.82919 12.1486 3.82305 12.0503 3.84777 11.9578L4.95444 7.78539H0.916643C0.835442 7.78538 0.756011 7.76097 0.688116 7.71516C0.620221 7.66935 0.56682 7.60413 0.534478 7.52752C0.502135 7.45092 0.492261 7.36626 0.506068 7.28396C0.519876 7.20166 0.556763 7.1253 0.612197 7.06427L6.44556 0.635914C6.5091 0.566 6.59356 0.519971 6.68548 0.505163C6.77741 0.490354 6.87151 0.507618 6.95279 0.554203Z" fill="#FFBEC9"/>
</svg>
