<svg width="20" height="20" viewBox="0 0 20 20" fill="none" xmlns="http://www.w3.org/2000/svg">
<g clip-path="url(#clip0_3128_4961)">
<path d="M18.975 8.95L17.0812 7.05625V4.375C17.0805 3.98567 16.9256 3.61247 16.6503 3.33717C16.375 3.06187 16.0018 2.90691 15.6125 2.90625H12.9312L11.0375 1.0125C10.7613 0.739223 10.3885 0.585937 9.99995 0.585938C9.61143 0.585938 9.23861 0.739223 8.96245 1.0125L7.0687 2.90625H4.38745C3.99812 2.90691 3.62492 3.06187 3.34962 3.33717C3.07432 3.61247 2.91936 3.98567 2.9187 4.375V7.05625L1.02495 8.95C0.888287 9.08601 0.779841 9.24769 0.705842 9.42573C0.631843 9.60378 0.59375 9.79469 0.59375 9.9875C0.59375 10.1803 0.631843 10.3712 0.705842 10.5493C0.779841 10.7273 0.888287 10.889 1.02495 11.025L2.9187 12.925V15.6C2.91845 15.7929 2.95628 15.9841 3.03 16.1624C3.10372 16.3407 3.2119 16.5027 3.34834 16.6391C3.48477 16.7755 3.64678 16.8837 3.82509 16.9575C4.0034 17.0312 4.1945 17.069 4.38745 17.0688H7.0687L8.96245 18.9625C9.09846 19.0992 9.26013 19.2076 9.43818 19.2816C9.61623 19.3556 9.80714 19.3937 9.99995 19.3937C10.1928 19.3937 10.3837 19.3556 10.5617 19.2816C10.7398 19.2076 10.9014 19.0992 11.0375 18.9625L12.9312 17.0688H15.6125C15.8054 17.069 15.9965 17.0312 16.1748 16.9575C16.3531 16.8837 16.5151 16.7755 16.6516 16.6391C16.788 16.5027 16.8962 16.3407 16.9699 16.1624C17.0436 15.9841 17.0814 15.7929 17.0812 15.6V12.925L18.975 11.025C19.1116 10.889 19.2201 10.7273 19.2941 10.5493C19.3681 10.3712 19.4062 10.1803 19.4062 9.9875C19.4062 9.79469 19.3681 9.60378 19.2941 9.42573C19.2201 9.24769 19.1116 9.08601 18.975 8.95ZM9.99995 13.125C9.38188 13.125 8.7777 12.9417 8.26379 12.5983C7.74989 12.255 7.34935 11.7669 7.11283 11.1959C6.8763 10.6249 6.81442 9.99653 6.935 9.39034C7.05558 8.78415 7.3532 8.22733 7.79024 7.79029C8.22728 7.35325 8.7841 7.05563 9.39029 6.93505C9.99648 6.81447 10.6248 6.87635 11.1958 7.11288C11.7669 7.3494 12.2549 7.74994 12.5983 8.26384C12.9417 8.77775 13.125 9.38193 13.125 10C13.125 10.8288 12.7957 11.6237 12.2097 12.2097C11.6236 12.7958 10.8288 13.125 9.99995 13.125Z" fill="white"/>
</g>
<defs>
<clipPath id="clip0_3128_4961">
<rect width="20" height="20" fill="white"/>
</clipPath>
</defs>
</svg>
